<svg width="20" height="20" viewBox="0 0 20 20" fill="none" xmlns="http://www.w3.org/2000/svg">
<rect width="20" height="20" fill="white"/>
<path d="M4 2H8.90682C13.107 2 15.186 3.41741 15.186 6.36875C15.186 7.74777 14.5218 8.77587 13.5564 9.33927C15.0997 9.92186 16 11.2611 16 12.8732C16 16.0384 13.7713 18 8.97037 18H4V2ZM8.99307 8.29061C10.3427 8.29061 11.1582 7.90267 11.1582 6.83482C11.1582 5.66964 10.3654 5.30089 8.99307 5.30089H8.05044V8.29061H8.99307V8.29061ZM8.84327 14.4455C10.6862 14.4455 11.6288 14.0576 11.6288 12.7951C11.6288 11.5326 10.6862 11.087 8.99307 11.087H8.05044V14.4455H8.84327V14.4455Z" fill="black"/>
</svg>
