<?xml version="1.0" encoding="UTF-8"?>
<svg id="Calque_2" width="50" height="50" xmlns="http://www.w3.org/2000/svg" viewBox="0 0 258.41 258.41">
    <defs>
        <style>.zoom-cursor-svg{fill:#fff;}</style>
    </defs>
    <g id="Calque_1-2">
        <g>
            <g>
                <path class="zoom-cursor-svg"
                      d="m89.15,100.49c-6.25,0-11.34-5.09-11.34-11.34s5.09-11.34,11.34-11.34,11.34,5.09,11.34,11.34-5.09,11.34-11.34,11.34Z"/>
                <path d="m89.15,78.81c5.7,0,10.34,4.64,10.34,10.34s-4.64,10.34-10.34,10.34-10.34-4.64-10.34-10.34,4.64-10.34,10.34-10.34m0-2c-6.82,0-12.34,5.53-12.34,12.34s5.53,12.34,12.34,12.34,12.34-5.53,12.34-12.34-5.53-12.34-12.34-12.34h0Z"/>
            </g>
            <g>
                <path class="zoom-cursor-svg"
                      d="m146.01,155.19l-.7.59c-15.67,13.23-35.61,20.51-56.15,20.51-48.05,0-87.15-39.1-87.15-87.15S41.1,2,89.15,2s87.15,39.1,87.15,87.15c0,20.54-7.29,40.49-20.51,56.15l-.59.7,100.39,100.38-9.2,9.2-100.38-100.39ZM89.15,15C48.26,15,15,48.26,15,89.15s33.26,74.15,74.15,74.15,74.15-33.26,74.15-74.15S130.04,15,89.15,15Z"/>
                <path d="m89.15,3c47.5,0,86.15,38.65,86.15,86.15,0,20.31-7.2,40.02-20.28,55.51l-1.19,1.4,1.3,1.3,99.04,99.03-7.78,7.78-99.03-99.04-1.3-1.3-1.4,1.19c-15.49,13.08-35.2,20.28-55.51,20.28-47.5,0-86.15-38.65-86.15-86.15S41.65,3,89.15,3m0,161.3c41.44,0,75.15-33.71,75.15-75.15S130.59,14,89.15,14,14,47.71,14,89.15s33.71,75.15,75.15,75.15m0-163.3C40.47,1,1,40.47,1,89.15s39.47,88.15,88.15,88.15c21.64,0,41.46-7.8,56.8-20.75l100.44,100.45,10.61-10.61-100.45-100.44c12.95-15.34,20.75-35.16,20.75-56.8C177.3,40.47,137.83,1,89.15,1h0Zm0,161.3c-40.34,0-73.15-32.82-73.15-73.15S48.81,16,89.15,16s73.15,32.81,73.15,73.15-32.82,73.15-73.15,73.15h0Z"/>
            </g>
        </g>
    </g>
</svg>